<?xml version="1.0" encoding="iso-8859-1"?>
<!-- Generator: Adobe Illustrator 19.0.0, SVG Export Plug-In . SVG Version: 6.00 Build 0)  -->
<svg version="1.1" id="Layer_1" xmlns="http://www.w3.org/2000/svg" xmlns:xlink="http://www.w3.org/1999/xlink" x="0px" y="0px"
	 viewBox="0 0 512 512" style="enable-background:new 0 0 512 512;" xml:space="preserve">
<g>
	<g>
		<path d="M460.808,287.246H223.029l10.443-24.748c0.867-2.055,0.883-4.37,0.043-6.436s-2.467-3.715-4.521-4.582l-39.677-16.742
			c-4.278-1.804-9.213,0.198-11.018,4.479l-23.156,54.875c-4.933-9.415-12.903-16.767-22.822-20.953l-19.483-8.221
			c-4.279-1.804-9.212,0.198-11.018,4.479l-14.575,34.539c-4.777,11.319-4.86,23.82-0.233,35.202
			c1.004,2.467,2.212,4.809,3.589,7.026c-14.103,3.097-26.552,12.743-32.58,27.026l-14.575,34.539
			c-0.867,2.055-0.883,4.37-0.043,6.436c0.84,2.067,2.466,3.715,4.521,4.582l19.483,8.222c5.755,2.429,11.814,3.643,17.878,3.643
			c4.388,0,8.778-0.637,13.054-1.911l-23.156,54.875c-1.805,4.279,0.2,9.213,4.479,11.018l39.677,16.744
			c1.068,0.45,2.175,0.664,3.266,0.664c3.28,0,6.396-1.931,7.752-5.142l73.89-175.099V486.53c0,14.041,11.424,25.466,25.467,25.466
			h214.038c14.041,0,25.466-11.424,25.466-25.466V295.656C469.218,291.01,465.452,287.246,460.808,287.246z M102.741,310.474
			l11.305-26.791l11.735,4.952c7.18,3.029,12.749,8.672,15.684,15.893c2.933,7.219,2.881,15.149-0.149,22.328l-11.305,26.791
			l-11.735-4.952c-7.18-3.029-12.75-8.672-15.684-15.893C99.658,325.583,99.71,317.653,102.741,310.474z M96.273,411.618
			c-7.219,2.935-15.149,2.883-22.328-0.149l-11.735-4.952l11.305-26.791c6.254-14.822,23.399-21.792,38.22-15.536l11.735,4.952
			l-11.306,26.793C109.136,403.115,103.492,408.684,96.273,411.618z M118.129,492.568L93.95,482.364c0,0,33.713-79.89,33.713-79.891
			l62.864-148.97l24.179,10.203L118.129,492.568z M353.075,495.177h-32.688v-0.001V343.443c0-4.646-3.764-8.41-8.41-8.41
			c-4.646,0-8.41,3.764-8.41,8.41v151.733h-73.855c-4.768,0-8.648-3.879-8.648-8.647V304.065h132.01V495.177z M452.398,486.53
			c0,4.768-3.879,8.647-8.646,8.647h-73.856V304.065h82.503V486.53z"/>
	</g>
</g>
<g>
	<g>
		<path d="M371.893,35.524l-12.781-9.514l0.592-15.928c0.136-3.722-1.815-7.134-5.093-8.903c-3.275-1.769-7.197-1.532-10.238,0.622
			l-12.997,9.216l-14.962-5.483c-3.497-1.282-7.344-0.484-10.043,2.085c-2.7,2.57-3.687,6.378-2.576,9.933l4.747,15.208
			l-9.835,12.534c-2.301,2.929-2.732,6.837-1.122,10.196c1.609,3.359,4.924,5.474,8.653,5.519l15.932,0.185l8.881,13.229
			c1.829,2.725,4.828,4.304,8.041,4.304c0.434,0,0.87-0.029,1.309-0.087c3.694-0.491,6.729-2.99,7.923-6.522l5.1-15.095l15.331-4.36
			c3.584-1.022,6.227-3.934,6.895-7.599C376.32,41.399,374.878,37.742,371.893,35.524z M345.24,41.858
			c-3.087,0.874-5.539,3.211-6.557,6.239l-1.689,4.999l-2.942-4.383c-1.786-2.659-4.763-4.266-7.954-4.297l-5.275-0.062l3.254-4.142
			c1.979-2.516,2.591-5.843,1.637-8.9l-1.571-5.036l4.937,1.809c3.008,1.11,6.366,0.664,8.978-1.191l4.304-3.052l-0.195,5.262
			c-0.122,3.203,1.34,6.257,3.907,8.163l4.231,3.151L345.24,41.858z"/>
	</g>
</g>
<g>
	<g>
		<path d="M340.599,179.225c-2.02-24.648-6.029-49.339-11.916-73.384c-1.104-4.511-5.656-7.273-10.168-6.169
			c-4.511,1.104-7.273,5.658-6.169,10.168c5.677,23.187,9.544,46.992,11.491,70.759c2.155,26.306,1.999,52.978-0.464,79.277
			c-0.433,4.624,2.965,8.724,7.589,9.158c0.266,0.023,0.531,0.037,0.794,0.037c4.29,0,7.956-3.269,8.364-7.627
			C342.672,234.17,342.834,206.508,340.599,179.225z"/>
	</g>
</g>
<g>
	<g>
		<path d="M315.428,260.392c-1.589-16.902-7.274-42.16-25.34-66.495c-23.944-32.254-56.031-44.601-73.029-49.09
			c-4.491-1.191-9.092,1.492-10.278,5.983c-1.188,4.489,1.492,9.092,5.983,10.277c14.869,3.928,42.931,14.719,63.817,42.856
			c15.751,21.217,20.712,43.274,22.1,58.043c0.409,4.356,4.074,7.624,8.363,7.624c0.263,0,0.529-0.013,0.797-0.038
			C312.467,269.117,315.862,265.016,315.428,260.392z"/>
	</g>
</g>
<g>
	<g>
		<path d="M458.192,157.763c-13.491,0.579-47.944,4.975-76.417,33.235c-24.666,24.478-31.346,53.21-33.132,68.157
			c-0.551,4.611,2.74,8.797,7.354,9.349c0.339,0.04,0.675,0.061,1.008,0.061c4.198,0,7.828-3.141,8.34-7.413
			c1.526-12.775,7.229-37.327,28.276-58.216c24.301-24.12,53.754-27.874,65.29-28.368c4.641-0.2,8.242-4.122,8.042-8.762
			C466.754,161.163,462.845,157.536,458.192,157.763z"/>
	</g>
</g>
<g>
	<g>
		<path d="M276.769,77c-11.341-11.907-30.256-12.372-42.166-1.027c-11.907,11.341-12.368,30.256-1.027,42.166
			c5.495,5.768,12.906,9.051,20.871,9.245c0.25,0.007,0.497,0.009,0.746,0.009c7.689,0,14.963-2.905,20.55-8.228
			c5.768-5.495,9.051-12.906,9.245-20.87C285.183,90.331,282.263,82.766,276.769,77z M264.142,106.986
			c-5.192,4.946-13.44,4.742-18.385-0.447c-4.946-5.194-4.745-13.442,0.447-18.388c2.513-2.394,5.741-3.58,8.965-3.58
			c3.437,0,6.868,1.35,9.42,4.03C269.535,93.792,269.334,102.04,264.142,106.986z"/>
	</g>
</g>
<g>
	<g>
		<path d="M408.999,101.942c-11.341-11.908-30.256-12.37-42.166-1.027c-5.768,5.495-9.052,12.908-9.246,20.871
			c-0.194,7.965,2.725,15.528,8.219,21.296c5.853,6.144,13.721,9.24,21.603,9.24c7.394,0,14.799-2.725,20.563-8.214
			C419.881,132.767,420.341,113.852,408.999,101.942z M396.371,131.93c-5.191,4.945-13.438,4.744-18.385-0.447
			c-4.946-5.193-4.745-13.441,0.449-18.387c2.513-2.394,5.741-3.58,8.965-3.58c3.437,0,6.868,1.35,9.42,4.03
			C401.764,118.736,401.563,126.984,396.371,131.93z"/>
	</g>
</g>
<g>
</g>
<g>
</g>
<g>
</g>
<g>
</g>
<g>
</g>
<g>
</g>
<g>
</g>
<g>
</g>
<g>
</g>
<g>
</g>
<g>
</g>
<g>
</g>
<g>
</g>
<g>
</g>
<g>
</g>
</svg>
